<svg width="40" height="39" viewBox="0 0 40 39" fill="none" xmlns="http://www.w3.org/2000/svg">
<rect x="0.5" y="1.36914" width="39" height="37.1308" rx="3.5" stroke="#C1C7CD"/>
<path d="M12.3871 17.8018V14.1826C12.3871 13.2778 12.129 13.0839 11.6129 13.0839C11.0968 13.0839 10.7742 13.2778 10.7742 14.1826V26.2681C10.7742 27.1729 11.0323 27.3668 11.6129 27.3668C12.129 27.3668 12.3871 27.1729 12.3871 26.2681V22.3904H15.0323V26.462C15.0323 28.7887 13.2258 29.4349 11.5484 29.4349C9.93548 29.4349 8.12903 28.7887 8.12903 26.462V13.9241C8.12903 11.5975 9.93548 10.9512 11.5484 10.9512C13.2258 10.9512 15.0323 11.5975 15.0323 13.9241V17.8018H12.3871Z" fill="#C1C7CD"/>
<path d="M19.0968 18.6421H19.6129C20.5161 18.6421 20.7097 18.125 20.7097 17.4788V14.2473C20.7097 13.601 20.3226 13.3425 19.7419 13.3425H19.0968V18.6421ZM16.4516 29.1119V11.2744H19.9355C22.0645 11.2744 23.3548 12.05 23.3548 14.312V16.8325C23.3548 18.1897 22.9677 19.2884 20.7097 19.4822V19.6115C21.871 19.7408 23.1613 20.1932 23.2258 21.8089C23.3548 24.2001 23.2258 26.7206 23.6774 29.1119H21.0322C20.5806 27.0438 20.7097 24.394 20.7097 22.3259C20.7097 21.2272 20.3226 20.8394 19.0968 20.9041V29.1765H16.4516V29.1119Z" fill="#C1C7CD"/>
<path d="M31.6775 11.2744V26.4621C31.6775 28.7887 29.871 29.435 28.1936 29.435C26.5807 29.435 24.7742 28.7887 24.7742 26.4621V11.2744H27.4194V26.2036C27.4194 27.1084 27.6775 27.3023 28.2581 27.3023C28.7742 27.3023 29.0323 27.1084 29.0323 26.2036V11.2744H31.6775Z" fill="#C1C7CD"/>
</svg>
