<svg width="40" height="41" viewBox="0 0 40 41" fill="none" xmlns="http://www.w3.org/2000/svg">
<path fillRule="evenodd" clipRule="evenodd" d="M0 5.53564C0 2.77422 2.23858 0.535645 5 0.535645H16.017C18.7784 0.535645 21.0169 2.77422 21.0169 5.53564V16.5526C21.0169 16.7216 21.0086 16.8887 20.9922 17.0534L23.4822 19.5435C23.6469 19.5271 23.814 19.5187 23.9831 19.5187H35C37.7614 19.5187 40 21.7573 40 24.5187V35.5356C40 38.2971 37.7614 40.5356 35 40.5356H23.983C21.2216 40.5356 18.9831 38.2971 18.9831 35.5356V24.5187C18.9831 24.3497 18.9914 24.1826 19.0078 24.0179L16.5178 21.5278C16.353 21.5442 16.186 21.5526 16.0169 21.5526H5C2.23857 21.5526 0 19.314 0 16.5526V5.53564Z" fill="#C1C7CD"/>
</svg>
