<svg width="40" height="40" viewBox="0 0 40 40" fill="none" xmlns="http://www.w3.org/2000/svg">
<path fillRule="evenodd" clipRule="evenodd" d="M20.0165 0.535645C8.94791 0.535645 0 9.54952 0 20.7009C0 29.6148 5.73324 37.1603 13.6868 39.8308C14.6812 40.0316 15.0454 39.3969 15.0454 38.8631C15.0454 38.3956 15.0126 36.7932 15.0126 35.1235C9.4445 36.3257 8.28498 32.7197 8.28498 32.7197C7.39015 30.3826 6.06429 29.782 6.06429 29.782C4.24185 28.5467 6.19704 28.5467 6.19704 28.5467C8.21861 28.6803 9.27938 30.6166 9.27938 30.6166C11.0686 33.6879 13.9518 32.8201 15.1118 32.2858C15.2773 30.9837 15.8079 30.0823 16.3713 29.5816C11.9303 29.1141 7.25781 27.3782 7.25781 19.6324C7.25781 17.4289 8.05267 15.6261 9.31216 14.224C9.11344 13.7234 8.41733 11.653 9.51128 8.88209C9.51128 8.88209 11.2014 8.34781 15.0122 10.952C16.6438 10.5106 18.3263 10.286 20.0165 10.2842C21.7067 10.2842 23.4295 10.5181 25.0205 10.952C28.8317 8.34781 30.5218 8.88209 30.5218 8.88209C31.6158 11.653 30.9192 13.7234 30.7205 14.224C32.0132 15.6261 32.7753 17.4289 32.7753 19.6324C32.7753 27.3782 28.1028 29.0806 23.6287 29.5816C24.358 30.2159 24.9873 31.4176 24.9873 33.3208C24.9873 36.0249 24.9545 38.1952 24.9545 38.8627C24.9545 39.3969 25.3192 40.0316 26.3132 39.8312C34.2667 37.1599 39.9999 29.6148 39.9999 20.7009C40.0327 9.54952 31.052 0.535645 20.0165 0.535645Z" fill="#C1C7CD"/>
</svg>
