<svg width="40" height="auto" viewBox="0 0 50 47" fill="none" xmlns="http://www.w3.org/2000/svg">
<g id="Logo Spade">
<path id="Vector" d="M39.6292 40.1502C39.5783 40.2009 39.5205 40.2445 39.4624 40.2735C35.963 42.6904 27.6742 42.0021 23.2308 37.5731L18.358 32.915C17.8643 32.4229 17.8643 31.6702 18.358 31.1781L21.8421 27.6903L21.2612 27.1113L4.64889 10.7528C3.19679 9.30538 3.19679 6.98958 4.64889 5.54221C6.10099 4.09483 8.42435 4.09483 9.87645 5.54221L26.4888 21.9008L27.0696 22.4797L30.0076 19.5604C30.5013 19.0683 31.2564 19.0683 31.7501 19.5604L35.1415 22.6308C39.5849 27.0597 43.4121 34.8892 39.7528 39.984C39.7238 40.0419 39.68 40.0996 39.6292 40.1502ZM37.8651 38.3919C40.6822 34.3103 36.9421 27.8992 33.399 24.3676L30.8829 22.0829L25.3271 27.6903L25.9079 28.2692C26.4017 28.7613 27.1567 28.7613 27.6505 28.2692C28.1442 27.7771 28.8379 27.7771 29.3317 28.2692C29.8254 28.7613 29.8867 29.514 29.393 30.0061C27.9409 31.4535 25.6175 31.4535 24.1654 30.0061L23.5846 29.4271L20.9718 32.0465L24.9733 35.8363C27.5433 37.9825 33.7121 41.1998 37.8651 38.3919ZM22.1325 24.5061L23.875 22.7692L8.13393 7.27906C7.64022 6.78695 6.88512 6.78695 6.39141 7.27906C5.8977 7.77116 5.8977 8.5238 6.39141 9.01591L22.1325 24.5061Z" fill="white"/>
<path id="Vector_2" d="M45.342 42.0141C44.7804 40.6327 42.3196 40.3088 40.6294 40.2436C40.3211 39.5999 39.633 39.1099 38.565 38.7893C36.2968 38.1116 33.0597 38.4322 31.9972 38.5651C30.1584 37.9683 26.4183 38.7211 23.6216 38.7893C17.3064 38.9434 3.57214 39.2284 4.50037 42.0141C8.9558 42.0141 31.3652 42.0141 45.342 42.0141Z" fill="#C1C7CD"/>
</g>
</svg>
